<svg width="252" height="63" viewBox="0 0 252 63" fill="none" xmlns="http://www.w3.org/2000/svg">
<g clip-path="url(#clip0_135_547)">
<path d="M114.64 16.9111L109.697 18.5784L110.773 16.6333V46.6843L109.697 45.1361L114.64 46.6049V50.4159H99.8113V46.6049L104.953 45.0964L103.758 46.6843V21.1985L104.874 21.2382L95.1077 40.69L90.3244 40.9679L80.9571 21.1191H82.0732V46.6843L81.2362 45.2552L86.0195 46.6049V50.4159H72.0283V46.6049L76.9711 45.1361L75.9347 46.6843V16.6333L76.9711 18.499L72.0283 17.1493V13.3384L85.2621 13.0605L94.0713 33.3856H93.1545L102.362 13.3384L114.64 13.0605V16.9111Z" fill="white"/>
<path d="M141.545 46.6446L140.549 45.1758L145.133 46.6049V50.3762L135.805 50.8526L134.809 45.7713L135.327 45.9301C133.892 47.6768 132.377 48.9471 130.703 49.8204C129.029 50.6541 127.315 51.0907 125.521 51.0907C123.249 51.0907 121.376 50.3762 119.861 48.9074C118.386 47.4783 117.629 45.3743 117.629 42.6352C117.629 40.6106 118.067 39.0227 118.944 37.8318C119.821 36.6408 121.097 35.8072 122.731 35.2514C124.405 34.7354 126.438 34.4575 128.79 34.4575H134.61L134.091 35.0529V31.5596C134.091 29.8923 133.693 28.7013 132.896 28.0265C132.098 27.3119 130.942 26.9546 129.428 26.9546C128.67 26.9546 127.873 27.034 127.036 27.1531C126.199 27.3119 125.242 27.5104 124.286 27.7883L125.043 26.9943L124.365 31.2817H119.742L119.303 23.5407C121.735 22.8261 123.927 22.31 125.92 21.9924C127.913 21.6749 129.747 21.4764 131.421 21.4764C134.729 21.4764 137.24 22.1909 138.994 23.5804C140.748 25.0095 141.585 27.1928 141.585 30.1701V46.6446H141.545ZM125.163 41.8809C125.163 43.1909 125.481 44.1437 126.079 44.7788C126.717 45.414 127.475 45.6919 128.431 45.6919C129.308 45.6919 130.305 45.414 131.341 44.8582C132.417 44.3025 133.414 43.5482 134.37 42.5955L134.052 43.8658V37.8318L134.57 38.3478H129.986C128.152 38.3478 126.877 38.6257 126.159 39.1815C125.481 39.7769 125.163 40.6503 125.163 41.8809Z" fill="white"/>
<path d="M174.71 26.3989L173.634 26.6768C175.348 24.9301 177.141 23.6597 179.055 22.7864C180.968 21.9131 182.802 21.4764 184.556 21.4764C186.788 21.4764 188.661 22.2306 190.176 23.6597C191.691 25.1286 192.448 27.3913 192.448 30.4083V46.3667L191.77 45.2949L196.035 46.5652V50.3762H182.044V46.5652L185.951 45.414L185.034 46.5255V32.0756C185.034 30.3686 184.675 29.138 183.997 28.3044C183.32 27.5104 182.403 27.0737 181.327 27.0737C180.41 27.0737 179.374 27.3516 178.258 27.9074C177.102 28.4631 175.985 29.2968 174.869 30.4083L175.388 28.7807C175.467 29.0586 175.507 29.3365 175.507 29.535V30.1304V46.3667L174.83 45.2949L178.537 46.5652V50.3762H165.024V46.5652L168.93 45.414L168.093 46.5255V32.0756C168.093 30.3686 167.734 29.138 167.017 28.3044C166.299 27.5104 165.422 27.0737 164.346 27.0737C163.429 27.0737 162.393 27.3516 161.277 27.8677C160.121 28.3838 159.045 29.1777 157.968 30.2495L158.447 29.138V46.5255L157.769 45.414L161.476 46.5652V50.3762H147.405V46.5652L151.87 45.2949L150.953 46.3667V26.1607L151.87 27.3913L147.405 26.0813V22.2306L156.653 21.8337L157.61 26.9149L156.653 26.5577C158.327 24.8904 160.121 23.62 161.994 22.7864C163.908 21.9131 165.701 21.4764 167.455 21.4764C169.09 21.4764 170.525 21.8734 171.84 22.6673C173.115 23.4613 174.072 24.6919 174.71 26.3989Z" fill="white"/>
<path d="M206.28 29.2571C206.28 30.0908 206.638 30.7259 207.356 31.2023C208.073 31.6787 208.99 32.1154 210.106 32.4726C211.222 32.8299 212.418 33.1872 213.654 33.5842C214.929 33.9811 216.085 34.4972 217.201 35.0927C218.318 35.7278 219.234 36.5218 219.952 37.5539C220.669 38.5861 221.028 39.8961 221.028 41.5237C221.028 43.6276 220.47 45.3743 219.314 46.7638C218.158 48.1929 216.643 49.225 214.69 49.9396C212.737 50.6541 210.545 51.0114 208.073 51.0114C206.638 51.0114 205.164 50.8923 203.569 50.6541C201.975 50.4159 200.38 50.0586 198.706 49.6617L199.025 41.6428H203.729L204.326 46.3271L203.689 45.414C204.406 45.6125 205.164 45.811 206.04 45.9301C206.878 46.0492 207.635 46.1286 208.273 46.1286C209.189 46.1286 210.066 46.0095 210.864 45.7713C211.661 45.5331 212.338 45.1758 212.817 44.6995C213.335 44.2231 213.574 43.6276 213.574 42.8734C213.574 42.0397 213.215 41.3649 212.498 40.8488C211.78 40.3724 210.864 39.9358 209.748 39.5785C208.631 39.2212 207.475 38.8639 206.24 38.467C205.004 38.07 203.848 37.5539 202.732 36.9188C201.616 36.2836 200.699 35.45 199.982 34.3781C199.264 33.3063 198.905 31.9566 198.905 30.2496C198.905 28.1853 199.424 26.518 200.46 25.2477C201.496 23.9774 202.852 23.0246 204.605 22.4292C206.319 21.8337 208.233 21.5161 210.266 21.5161C211.741 21.5161 213.255 21.6352 214.89 21.9131C216.524 22.191 218.198 22.5482 219.912 23.0643L219.633 30.0908H214.89L214.052 25.9225L215.049 27.0341C213.375 26.5577 211.9 26.3592 210.624 26.3592C209.309 26.3592 208.273 26.5974 207.475 27.1135C206.678 27.6295 206.28 28.3441 206.28 29.2571Z" fill="white"/>
<path d="M248.453 46.6446L247.456 45.1758L252.04 46.6049V50.3762L242.713 50.8526L241.716 45.7713L242.234 45.9301C240.799 47.6768 239.285 48.9471 237.61 49.8204C235.936 50.6541 234.222 51.0907 232.429 51.0907C230.157 51.0907 228.283 50.3762 226.768 48.9074C225.294 47.4783 224.536 45.3743 224.536 42.6352C224.536 40.6106 224.975 39.0227 225.852 37.8318C226.728 36.6408 228.004 35.8072 229.638 35.2514C231.312 34.7354 233.345 34.4575 235.697 34.4575H241.517L240.999 35.0529V31.5596C240.999 29.8923 240.6 28.7013 239.803 28.0265C239.006 27.3119 237.85 26.9546 236.335 26.9546C235.578 26.9546 234.78 27.034 233.943 27.1531C233.106 27.3119 232.15 27.5104 231.193 27.7883L231.95 26.9943L231.193 31.2817H226.569L226.131 23.5407C228.562 22.8261 230.754 22.31 232.747 21.9924C234.741 21.6749 236.574 21.4764 238.248 21.4764C241.557 21.4764 244.068 22.1909 245.822 23.5804C247.576 25.0095 248.413 27.1928 248.413 30.1701V46.6446H248.453ZM232.03 41.8809C232.03 43.1909 232.349 44.1437 232.947 44.7788C233.585 45.414 234.342 45.6919 235.299 45.6919C236.175 45.6919 237.172 45.414 238.208 44.8582C239.285 44.3025 240.281 43.5482 241.238 42.5955L240.919 43.8658V37.8318L241.437 38.3478H236.853C235.02 38.3478 233.744 38.6257 233.026 39.1815C232.389 39.7769 232.03 40.6503 232.03 41.8809Z" fill="white"/>
<path d="M56.9208 25.208H53.7717C52.0179 25.208 50.6227 23.7788 50.6227 22.0718V18.9357C50.6227 15.4424 47.7926 12.6238 44.2849 12.6238H41.1359C39.382 12.6238 37.9869 11.1947 37.9869 9.48773V6.51041C37.9869 3.01703 35.1966 0.0794128 31.7287 0.0397152C28.1811 1.76653e-05 25.3111 2.85824 25.351 6.39132C25.3909 9.88471 28.3406 12.6238 31.8483 12.6238H34.8379C36.5917 12.6238 37.9869 14.0529 37.9869 15.7599V18.896C37.9869 22.3894 40.817 25.208 44.3247 25.208H47.4737C49.2276 25.208 50.6227 26.6371 50.6227 28.3441V34.656C50.6227 36.4027 49.1878 37.7921 47.4737 37.7921H44.3247C40.817 37.7921 37.9869 40.6106 37.9869 44.104C37.9869 47.5974 40.817 50.4159 44.3247 50.4159C47.8325 50.4159 50.6626 47.5974 50.6626 44.104V40.9679C50.6626 39.2212 52.0976 37.8318 53.8116 37.8318H56.9606C60.4684 37.8318 63.2985 35.0133 63.2985 31.5199C63.2586 28.0265 60.4285 25.208 56.9208 25.208Z" fill="white"/>
<path d="M31.4502 50.4159H28.4606C26.7067 50.4159 25.3116 48.9868 25.3116 47.2798V44.1437C25.3116 40.6503 22.4815 37.8318 18.9737 37.8318H15.8247C14.0709 37.8318 12.6757 36.4027 12.6757 34.6957V28.3441C12.6757 26.5974 14.1107 25.208 15.8247 25.208H18.9737C22.4815 25.208 25.3116 22.3895 25.3116 18.8961C25.3116 15.4027 22.4815 12.5842 18.9737 12.5842C15.466 12.5842 12.6359 15.4027 12.6359 18.8961V22.0322C12.6359 23.7789 11.2009 25.1683 9.48687 25.1683H6.33787C2.83012 25.208 0 28.0265 0 31.5199C0 35.0133 2.83012 37.8318 6.33787 37.8318H9.48687C11.2407 37.8318 12.6359 39.2609 12.6359 40.9679V44.104C12.6359 47.5974 15.466 50.4159 18.9737 50.4159H22.1227C23.8766 50.4159 25.2717 51.845 25.2717 53.552V56.5293C25.2717 60.0227 28.062 62.9604 31.5299 63C35.0775 63.0397 37.9475 60.1815 37.9076 56.6484C37.9076 53.1551 34.9579 50.4159 31.4502 50.4159Z" fill="white"/>
</g>
<defs>
<clipPath id="clip0_135_547">
<rect width="252" height="63" fill="white"/>
</clipPath>
</defs>
</svg>
