<svg width="266" height="67" viewBox="0 0 266 67" fill="none" xmlns="http://www.w3.org/2000/svg">
<path d="M121.009 17.9848L115.791 19.758L116.927 17.6893V49.6483L115.791 48.0018L121.009 49.5639V53.6168H105.357V49.5639L110.784 47.9596L109.522 49.6483V22.5443L110.7 22.5866L100.392 43.2734L95.3428 43.5689L85.4551 22.4599H86.6332V49.6483L85.7497 48.1285L90.7987 49.5639V53.6168H76.0303V49.5639L81.2476 48.0018L80.1537 49.6483V17.6893L81.2476 19.6735L76.0303 18.2381V14.1852L89.9993 13.8896L99.2979 35.5053H98.3302L108.05 14.1852L121.009 13.8896V17.9848Z" fill="#FC9700"/>
<path d="M149.409 49.6062L148.357 48.0441L153.196 49.564V53.5747L143.35 54.0813L142.299 48.6774L142.845 48.8463C141.331 50.7039 139.732 52.0548 137.965 52.9836C136.198 53.8702 134.388 54.3346 132.495 54.3346C130.097 54.3346 128.119 53.5747 126.52 52.0126C124.963 50.4928 124.164 48.2552 124.164 45.3422C124.164 43.1891 124.627 41.5003 125.553 40.2338C126.478 38.9673 127.825 38.0807 129.55 37.4896C131.317 36.9408 133.463 36.6453 135.945 36.6453H142.088L141.541 37.2785V33.5633C141.541 31.7902 141.12 30.5236 140.279 29.8059C139.437 29.046 138.217 28.6661 136.618 28.6661C135.819 28.6661 134.977 28.7505 134.094 28.8771C133.21 29.046 132.2 29.2571 131.191 29.5526L131.99 28.7083L131.275 33.2678H126.394L125.931 25.0353C128.498 24.2754 130.812 23.7265 132.916 23.3888C135.019 23.0511 136.955 22.84 138.722 22.84C142.214 22.84 144.865 23.5999 146.716 25.0775C148.568 26.5974 149.451 28.9194 149.451 32.0857V49.6062H149.409ZM132.116 44.54C132.116 45.9332 132.453 46.9465 133.084 47.6219C133.757 48.2974 134.557 48.593 135.566 48.593C136.492 48.593 137.544 48.2974 138.638 47.7064C139.774 47.1153 140.826 46.3132 141.836 45.3L141.499 46.6509V40.2338L142.046 40.7826H137.207C135.272 40.7826 133.926 41.0782 133.168 41.6692C132.453 42.3025 132.116 43.2313 132.116 44.54Z" fill="#FC9700"/>
<path d="M184.416 28.075L183.28 28.3705C185.09 26.5129 186.983 25.162 189.003 24.2332C191.022 23.3044 192.958 22.84 194.809 22.84C197.165 22.84 199.143 23.6421 200.742 25.162C202.34 26.724 203.14 29.1305 203.14 32.339V49.3107L202.425 48.1708L206.927 49.5218V53.5747H192.158V49.5218L196.282 48.2974L195.314 49.4795V34.1122C195.314 32.2968 194.935 30.988 194.22 30.1015C193.505 29.2571 192.537 28.7927 191.401 28.7927C190.433 28.7927 189.339 29.0882 188.161 29.6793C186.941 30.2703 185.763 31.1569 184.585 32.339L185.132 30.6081C185.216 30.9036 185.258 31.1991 185.258 31.4102V32.0435V49.3107L184.543 48.1708L188.456 49.5218V53.5747H174.192V49.5218L178.315 48.2974L177.432 49.4795V34.1122C177.432 32.2968 177.053 30.988 176.296 30.1015C175.538 29.2571 174.613 28.7927 173.477 28.7927C172.509 28.7927 171.415 29.0882 170.237 29.6371C169.017 30.1859 167.881 31.0303 166.745 32.1701L167.25 30.988V49.4795L166.534 48.2974L170.447 49.5218V53.5747H155.595V49.5218L160.307 48.1708L159.339 49.3107V27.8217L160.307 29.1305L155.595 27.7373V23.6421L165.356 23.2199L166.366 28.6238L165.356 28.2439C167.123 26.4707 169.017 25.1197 170.994 24.2332C173.014 23.3044 174.907 22.84 176.759 22.84C178.484 22.84 179.998 23.2621 181.387 24.1065C182.733 24.9509 183.743 26.2596 184.416 28.075Z" fill="#FC9700"/>
<path d="M217.739 31.1146C217.739 32.0012 218.118 32.6767 218.875 33.1833C219.633 33.6899 220.601 34.1543 221.779 34.5343C222.957 34.9142 224.219 35.2942 225.523 35.7164C226.87 36.1385 228.09 36.6874 229.268 37.3206C230.446 37.9961 231.414 38.8405 232.171 39.9382C232.929 41.0358 233.307 42.429 233.307 44.16C233.307 46.3975 232.718 48.2551 231.498 49.7327C230.278 51.2526 228.679 52.3503 226.617 53.1102C224.556 53.8701 222.241 54.2501 219.633 54.2501C218.118 54.2501 216.561 54.1234 214.878 53.8701C213.195 53.6168 211.512 53.2368 209.745 52.8147L210.082 44.2866H215.047L215.678 49.2683L215.005 48.2973C215.762 48.5084 216.561 48.7195 217.487 48.8462C218.371 48.9728 219.17 49.0573 219.843 49.0573C220.811 49.0573 221.737 48.9306 222.578 48.6773C223.42 48.424 224.135 48.044 224.64 47.5374C225.187 47.0308 225.439 46.3975 225.439 45.5954C225.439 44.7088 225.061 43.9911 224.303 43.4423C223.546 42.9356 222.578 42.4712 221.4 42.0913C220.222 41.7113 219.002 41.3314 217.697 40.9092C216.393 40.487 215.173 39.9382 213.995 39.2627C212.817 38.5872 211.849 37.7006 211.092 36.5607C210.334 35.4208 209.955 33.9854 209.955 32.17C209.955 29.9747 210.502 28.2016 211.596 26.8506C212.69 25.4996 214.121 24.4864 215.972 23.8531C217.781 23.2198 219.801 22.8821 221.947 22.8821C223.504 22.8821 225.103 23.0087 226.828 23.3043C228.553 23.5998 230.32 23.9797 232.129 24.5286L231.835 32.0012H226.828L225.944 27.5683L226.996 28.7504C225.229 28.2438 223.672 28.0327 222.326 28.0327C220.937 28.0327 219.843 28.286 219.002 28.8348C218.16 29.3837 217.739 30.1436 217.739 31.1146Z" fill="#FC9700"/>
<path d="M262.255 49.6062L261.203 48.0441L266.042 49.564V53.5747L256.196 54.0813L255.144 48.6774L255.691 48.8463C254.176 50.7039 252.578 52.0548 250.81 52.9836C249.043 53.8702 247.234 54.3346 245.341 54.3346C242.942 54.3346 240.965 53.5747 239.366 52.0126C237.809 50.4928 237.01 48.2552 237.01 45.3422C237.01 43.1891 237.473 41.5003 238.398 40.2338C239.324 38.9673 240.67 38.0807 242.395 37.4896C244.163 36.9408 246.308 36.6453 248.791 36.6453H254.934L254.387 37.2785V33.5633C254.387 31.7902 253.966 30.5236 253.125 29.8059C252.283 29.046 251.063 28.6661 249.464 28.6661C248.665 28.6661 247.823 28.7505 246.94 28.8771C246.056 29.046 245.046 29.2571 244.036 29.5526L244.836 28.7083L244.036 33.2678H239.156L238.693 25.0353C241.259 24.2754 243.574 23.7265 245.677 23.3888C247.781 23.0511 249.717 22.84 251.484 22.84C254.976 22.84 257.627 23.5999 259.478 25.0775C261.329 26.5974 262.213 28.9194 262.213 32.0857V49.6062H262.255ZM244.92 44.54C244.92 45.9332 245.257 46.9465 245.888 47.6219C246.561 48.2974 247.36 48.593 248.37 48.593C249.296 48.593 250.348 48.2974 251.442 47.7064C252.578 47.1153 253.63 46.3132 254.639 45.3L254.303 46.6509V40.2338L254.85 40.7826H250.011C248.076 40.7826 246.729 41.0782 245.972 41.6692C245.299 42.3025 244.92 43.2313 244.92 44.54Z" fill="#FC9700"/>
<path d="M60.0838 26.8084H56.7599C54.9086 26.8084 53.4359 25.2886 53.4359 23.4732V20.138C53.4359 16.4228 50.4486 13.4253 46.746 13.4253H43.422C41.5707 13.4253 40.0981 11.9054 40.0981 10.0901V6.92372C40.0981 3.20853 37.1528 0.0844006 33.4922 0.0421826C29.7475 -3.54648e-05 26.7181 3.03966 26.7602 6.79707C26.8023 10.5123 29.9158 13.4253 33.6185 13.4253H36.7741C38.6254 13.4253 40.0981 14.9451 40.0981 16.7605V20.0957C40.0981 23.8109 43.0854 26.8084 46.788 26.8084H50.112C51.9633 26.8084 53.4359 28.3283 53.4359 30.1436V36.8563C53.4359 38.7139 51.9212 40.1915 50.112 40.1915H46.788C43.0854 40.1915 40.0981 43.189 40.0981 46.9042C40.0981 50.6194 43.0854 53.6169 46.788 53.6169C50.4907 53.6169 53.478 50.6194 53.478 46.9042V43.569C53.478 41.7114 54.9927 40.2337 56.802 40.2337H60.1259C63.8285 40.2337 66.8159 37.2363 66.8159 33.5211C66.7738 29.8059 63.7865 26.8084 60.0838 26.8084Z" fill="#FC9700"/>
<path d="M33.1974 53.6168H30.0418C28.1904 53.6168 26.7178 52.097 26.7178 50.2816V46.9464C26.7178 43.2312 23.7305 40.2337 20.0278 40.2337H16.7039C14.8526 40.2337 13.3799 38.7139 13.3799 36.8985V30.1436C13.3799 28.286 14.8947 26.8084 16.7039 26.8084H20.0278C23.7305 26.8084 26.7178 23.8109 26.7178 20.0957C26.7178 16.3805 23.7305 13.3831 20.0278 13.3831C16.3252 13.3831 13.3379 16.3805 13.3379 20.0957V23.4309C13.3379 25.2885 11.8232 26.7662 10.0139 26.7662H6.68997C2.98735 26.8084 0 29.8059 0 33.5211C0 37.2362 2.98735 40.2337 6.68997 40.2337H10.0139C11.8652 40.2337 13.3379 41.7536 13.3379 43.5689V46.9042C13.3379 50.6194 16.3252 53.6168 20.0278 53.6168H23.3518C25.2031 53.6168 26.6757 55.1367 26.6757 56.9521V60.1184C26.6757 63.8336 29.621 66.9577 33.2816 66.9999C37.0263 67.0422 40.0557 64.0025 40.0136 60.2451C40.0136 56.5299 36.9 53.6168 33.1974 53.6168Z" fill="#FC9700"/>
</svg>
