<svg width="18" height="20" viewBox="0 0 18 20" fill="none" xmlns="http://www.w3.org/2000/svg">
<g clip-path="url(#clip0_68_179)">
<mask id="mask0_68_179" style="mask-type:alpha" maskUnits="userSpaceOnUse" x="0" y="0" width="18" height="20">
<path d="M0 0.0529511V19.2388H17.9797V0.0505981H0V0.0529511Z" fill="white"/>
</mask>
<g mask="url(#mask0_68_179)">
<path fill-rule="evenodd" clip-rule="evenodd" d="M6.17615 0.577643C3.91945 1.40035 2.05614 3.10682 0.978652 5.33764C0.609756 6.10069 0.341078 6.91234 0.179902 7.75058C-0.223546 9.85322 0.055987 12.0365 0.974152 13.9541C1.57441 15.1969 2.42398 16.2896 3.4649 17.1576C4.44855 17.9771 5.58335 18.5755 6.79828 18.9153C8.32715 19.3435 9.9539 19.3341 11.4929 18.9671C12.8928 18.6364 14.1872 17.9328 15.2504 16.9247C16.3608 15.8576 17.1539 14.4541 17.5735 12.9435C18.0325 11.2988 18.091 9.54 17.8053 7.84941H9.1754V11.5918H14.1749C14.0751 12.1895 13.8612 12.76 13.546 13.2694C13.2307 13.7787 12.8206 14.2165 12.34 14.5565C11.7292 14.9792 11.0406 15.2637 10.3184 15.3918C9.5984 15.5212 8.84803 15.5365 8.12803 15.3871C7.39414 15.2297 6.69933 14.9153 6.08728 14.4635C5.10719 13.7397 4.37183 12.7096 3.9869 11.5212C3.59504 10.3106 3.59504 8.99881 3.9869 7.78823C4.26281 6.9377 4.71804 6.16291 5.3189 5.52117C6.06343 4.72026 7.01694 4.16626 8.06053 3.92823C8.95324 3.7305 9.87907 3.76932 10.7538 4.04117C11.4949 4.27918 12.1721 4.69632 12.7304 5.25882L14.4179 3.49411C14.7138 3.18 15.0243 2.87647 15.31 2.55058C14.4542 1.71752 13.4506 1.06802 12.3558 0.638819C10.3637 -0.120811 8.18272 -0.142406 6.17728 0.577643" fill="white"/>
</g>
<mask id="mask1_68_179" style="mask-type:alpha" maskUnits="userSpaceOnUse" x="0" y="0" width="16" height="8">
<path d="M15.3099 0.0517883H0.978516V7.7812H15.311V0.0517883H15.3099Z" fill="white"/>
</mask>
<g mask="url(#mask1_68_179)">
<path fill-rule="evenodd" clip-rule="evenodd" d="M6.17714 0.577669C8.18247 -0.141327 10.3626 -0.121401 12.3556 0.634139C13.4503 1.05767 14.4515 1.71649 15.3099 2.54708C15.0241 2.87179 14.7136 3.17649 14.4178 3.49061L12.7303 5.25532C12.1706 4.69456 11.4939 4.27769 10.7536 4.03767C9.87943 3.76287 8.95299 3.72362 8.06039 3.92355C7.02539 4.15649 6.06352 4.72355 5.31877 5.51767C4.71732 6.15756 4.26197 6.93136 3.98677 7.7812C2.98552 6.96826 1.98427 6.15767 0.978516 5.34237C2.05442 3.10924 3.9181 1.40075 6.17602 0.577669" fill="#EA4335"/>
</g>
<path fill-rule="evenodd" clip-rule="evenodd" d="M0.185819 7.74473C0.347819 6.90943 0.613319 6.09532 0.984569 5.33179C1.98582 6.1459 2.98707 6.95532 3.99282 7.77061C3.59818 8.98111 3.59818 10.2942 3.99282 11.5047C2.99157 12.32 1.99032 13.1341 0.989069 13.9436C0.0630564 12.0303 -0.219897 9.8467 0.185819 7.74473Z" fill="#FBBC05"/>
<path fill-rule="evenodd" clip-rule="evenodd" d="M9.17555 7.84354H17.8054C18.0989 9.53796 18.0196 11.28 17.5737 12.9377C17.154 14.4494 16.3609 15.8518 15.2505 16.92L12.3368 14.5529C12.8173 14.2127 13.2273 13.7747 13.5423 13.2652C13.8574 12.7556 14.071 12.1849 14.1705 11.5871H9.16992C9.17555 10.34 9.17555 9.0906 9.17555 7.84354Z" fill="#4285F4"/>
<path fill-rule="evenodd" clip-rule="evenodd" d="M0.978516 13.9494C1.97977 13.1388 2.98102 12.3247 3.98227 11.5094C4.3685 12.6977 5.10354 13.7283 6.08264 14.4541C6.6955 14.9051 7.39053 15.2195 8.12452 15.3777C8.84452 15.5318 9.58927 15.5118 10.3138 15.3824C11.0363 15.2545 11.7254 14.97 12.3365 14.5471L15.2503 16.9141C14.2006 17.9306 12.8833 18.6212 11.4928 18.9565C9.95376 19.3224 8.32702 19.333 6.79814 18.9047C5.58243 18.5671 4.44723 17.9685 3.46477 17.1471C2.42566 16.2807 1.5776 15.19 0.978516 13.9494Z" fill="#34A853"/>
</g>
<defs>
<clipPath id="clip0_68_179">
<rect width="18" height="20" fill="white"/>
</clipPath>
</defs>
</svg>
